HIERARCHY
ROOT hip
{
  OFFSET 0 0 0
  CHANNELS 6 Xposition Yposition Zposition Zrotation Yrotation Xrotation
  JOINT abdomen
  {
    OFFSET 0 20.6881 -0.73152
    CHANNELS 3 Zrotation Xrotation Yrotation
    JOINT chest
    {
      OFFSET 0 11.7043 -0.48768
      CHANNELS 3 Zrotation Xrotation Yrotation
      JOINT neck
      {
        OFFSET 0 22.1894 -2.19456
        CHANNELS 3 Zrotation Xrotation Yrotation
        JOINT head
        {
          OFFSET -0.24384 7.07133 1.2192
          CHANNELS 3 Zrotation Xrotation Yrotation
          JOINT leftEye
          {
            OFFSET 4.14528 8.04674 8.04672
            CHANNELS 3 Zrotation Xrotation Yrotation
            End Site
            {
              OFFSET 1 0 0
            }
          }
          JOINT rightEye
          {
            OFFSET -3.6576 8.04674 8.04672
            CHANNELS 3 Zrotation Xrotation Yrotation
            End Site
            {
              OFFSET 1 0 0
            }
          }
        }
      }
      JOINT rCollar
      {
        OFFSET -2.68224 19.2634 -4.8768
        CHANNELS 3 Zrotation Xrotation Yrotation
        JOINT rShldr
        {
          OFFSET -8.77824 -1.95073 1.46304
          CHANNELS 3 Zrotation Xrotation Yrotation
          JOINT rForeArm
          {
            OFFSET -28.1742 -1.7115 0.48768
            CHANNELS 3 Zrotation Xrotation Yrotation
            JOINT rHand
            {
              OFFSET -22.5879 0.773209 7.07136
              CHANNELS 3 Zrotation Xrotation Yrotation
              JOINT rThumb1
              {
                OFFSET -1.2192 -0.487915 3.41376
                CHANNELS 3 Zrotation Xrotation Yrotation
                JOINT rThumb2
                {
                  OFFSET -3.37035 -0.52449 3.41376
                  CHANNELS 3 Zrotation Xrotation Yrotation
                  End Site
                  {
                    OFFSET -1.78271 -1.18214 1.43049
                  }
                }
              }
              JOINT rIndex1
              {
                OFFSET -7.75947 0.938293 5.60832
                CHANNELS 3 Zrotation Xrotation Yrotation
                JOINT rIndex2
                {
                  OFFSET -2.54057 -0.884171 1.56538
                  CHANNELS 3 Zrotation Xrotation Yrotation
                  End Site
                  {
                    OFFSET -1.62519 -0.234802 1.16502
                  }
                }
              }
              JOINT rMid1
              {
                OFFSET -8.24714 1.18213 3.41376
                CHANNELS 3 Zrotation Xrotation Yrotation
                JOINT rMid2
                {
                  OFFSET -3.10165 -0.590103 1.0647
                  CHANNELS 3 Zrotation Xrotation Yrotation
                  End Site
                  {
                    OFFSET -2.48547 -0.328903 0.83742
                  }
                }
              }
              JOINT rRing1
              {
                OFFSET -8.82822 0.546677 1.51678
                CHANNELS 3 Zrotation Xrotation Yrotation
                JOINT rRing2
                {
                  OFFSET -2.60934 -0.819778 -0.0198488
                  CHANNELS 3 Zrotation Xrotation Yrotation
                  End Site
                  {
                    OFFSET -2.33842 -0.294052 0.168128
                  }
                }
              }
              JOINT rPinky1
              {
                OFFSET -8.27202 -0.0477905 -0.4584
                CHANNELS 3 Zrotation Xrotation Yrotation
                JOINT rPinky2
                {
                  OFFSET -1.82734 -0.647385 -0.700984
                  CHANNELS 3 Zrotation Xrotation Yrotation
                  End Site
                  {
                    OFFSET -1.69225 -0.51767 -0.607171
                  }
                }
              }
            }
          }
        }
      }
      JOINT lCollar
      {
        OFFSET 2.68224 19.2634 -4.8768
        CHANNELS 3 Zrotation Xrotation Yrotation
        JOINT lShldr
        {
          OFFSET 8.77824 -1.95073 1.46304
          CHANNELS 3 Zrotation Xrotation Yrotation
          JOINT lForeArm
          {
            OFFSET 28.1742 -1.7115 0.48768
            CHANNELS 3 Zrotation Xrotation Yrotation
            JOINT lHand
            {
              OFFSET 22.5879 0.773209 7.07136
              CHANNELS 3 Zrotation Xrotation Yrotation
              JOINT lThumb1
              {
                OFFSET 1.2192 -0.487915 3.41376
                CHANNELS 3 Zrotation Xrotation Yrotation
                JOINT lThumb2
                {
                  OFFSET 3.37035 -0.52449 3.41376
                  CHANNELS 3 Zrotation Xrotation Yrotation
                  End Site
                  {
                    OFFSET 1.78271 -1.18214 1.43049
                  }
                }
              }
              JOINT lIndex1
              {
                OFFSET 7.75947 0.938293 5.60832
                CHANNELS 3 Zrotation Xrotation Yrotation
                JOINT lIndex2
                {
                  OFFSET 2.54057 -0.884171 1.56538
                  CHANNELS 3 Zrotation Xrotation Yrotation
                  End Site
                  {
                    OFFSET 1.62519 -0.234802 1.16502
                  }
                }
              }
              JOINT lMid1
              {
                OFFSET 8.24714 1.18213 3.41376
                CHANNELS 3 Zrotation Xrotation Yrotation
                JOINT lMid2
                {
                  OFFSET 3.10165 -0.590103 1.0647
                  CHANNELS 3 Zrotation Xrotation Yrotation
                  End Site
                  {
                    OFFSET 2.48547 -0.328903 0.83742
                  }
                }
              }
              JOINT lRing1
              {
                OFFSET 8.82822 0.546677 1.51678
                CHANNELS 3 Zrotation Xrotation Yrotation
                JOINT lRing2
                {
                  OFFSET 2.60934 -0.819778 -0.0198488
                  CHANNELS 3 Zrotation Xrotation Yrotation
                  End Site
                  {
                    OFFSET 2.33842 -0.294052 0.168128
                  }
                }
              }
              JOINT lPinky1
              {
                OFFSET 8.27202 -0.0477905 -0.4584
                CHANNELS 3 Zrotation Xrotation Yrotation
                JOINT lPinky2
                {
                  OFFSET 1.82734 -0.647385 -0.700984
                  CHANNELS 3 Zrotation Xrotation Yrotation
                  End Site
                  {
                    OFFSET 1.69225 -0.51767 -0.607171
                  }
                }
              }
            }
          }
        }
      }
    }
  }
  JOINT rButtock
  {
    OFFSET -8.77824 4.35084 1.2192
    CHANNELS 3 Zrotation Xrotation Yrotation
    JOINT rThigh
    {
      OFFSET 0 -1.70687 -2.19456
      CHANNELS 3 Zrotation Xrotation Yrotation
      JOINT rShin
      {
        OFFSET 0 -36.8199 0.73152
        CHANNELS 3 Zrotation Xrotation Yrotation
        JOINT rFoot
        {
          OFFSET 0.73152 -45.1104 -5.12064
          CHANNELS 3 Zrotation Xrotation Yrotation
          End Site
          {
            OFFSET -1.1221 -3.69964 12.103
          }
        }
      }
    }
  }
  JOINT lButtock
  {
    OFFSET 8.77824 4.35084 1.2192
    CHANNELS 3 Zrotation Xrotation Yrotation
    JOINT lThigh
    {
      OFFSET 0 -1.70687 -2.19456
      CHANNELS 3 Zrotation Xrotation Yrotation
      JOINT lShin
      {
        OFFSET 0 -36.8199 0.73152
        CHANNELS 3 Zrotation Xrotation Yrotation
        JOINT lFoot
        {
          OFFSET -0.73152 -45.1104 -5.12064
          CHANNELS 3 Zrotation Xrotation Yrotation
          End Site
          {
            OFFSET 1.1221 -3.69964 12.103
          }
        }
      }
    }
  }
}
MOTION
Frames:	4
Frame Time:	0.03333
2.1446 58.569700000000005 94.75670000000001 -2.124989 -3.714156 9.8658 -4.26846 13.928805 -87.998927 6.852685 2.525849 96.978051 -13.117925 26.834281 -93.277711 46.81771 16.85987 81.315926 -0.003535 0.0 -0.003126 0.002316 0.0 0.002498 0.034979 -0.209391 -0.046733 87.231889 -14.443203 50.078515 -170.07035 -39.671054 112.058142 161.670015 -34.567035 139.78684 -169.149962 -6.82992 89.91687 88.812691 -65.980454 66.940856 73.421853 -73.570123 26.565763 60.109988 -55.236358 8.985117 -164.637669 -19.283754 144.7333 -83.306093 63.970821 75.228781 -145.118169 0.185619 -179.185998 -73.703115 -78.000857 -95.211181 17.104154 59.931408 12.740461 -25.460443 -40.918456 -25.41714 158.416984 -29.366462 -166.793633 -175.000067 7.974757 94.589358 98.257362 -35.273079 -69.10198 -102.775382 -76.312578 -84.404206 14.735989 13.585374 -3.96709 78.922194 17.064507 -74.36533 46.209119 39.652304 -36.318666 -117.464308 -63.331702 -65.121947 36.035341 51.722932 -29.833239 175.855004 -41.11083 -142.969427 74.841047 72.961582 -92.827755 -3.230537 45.430797 -2.592544 143.937937 8.26469 140.720824 161.694563 54.353092 146.753637 179.990061 75.749548 0.008178 166.391587 49.464836 -180.0 -169.742332 -71.5672 138.511073 -106.447044 -10.733677 178.069809 -179.99151 75.749678 -0.008759 -164.574645 15.608426 -86.002315 -74.710025 -13.1637 40.562623 19.106989 24.741407 66.913917
1.2656 57.80499999999999 86.59559999999999 -5.62526 -15.065834 13.149876 -4.113575 12.132665 -0.0 4.377658 -9.542846 14.370261 -14.128335 22.553813 -77.660934 43.275666 8.802662 76.365765 0.000686 0.0 0.003346 0.000404 -0.0 -0.002374 -81.707377 68.337772 84.818768 -155.739457 46.575758 89.708354 -90.498297 -32.148153 -132.535606 43.599892 -62.680637 31.14453 11.508843 -11.487215 -0.62273 10.798175 -26.962346 -17.824676 -138.493982 4.89634 114.864529 170.13409 -53.249282 108.418021 -10.975566 25.789853 7.640506 11.463603 -24.921464 -1.543717 0.004896 1.771496 0.555768 -155.557708 -1.105393 171.981493 12.254877 41.424712 10.277699 -86.609685 -53.520423 -85.373004 157.797332 -22.11572 -165.46641 -115.498132 -2.243765 86.579573 18.804801 60.047244 -140.091245 4.346562 -2.705233 2.165331 0.441459 0.435273 -0.070355 142.355613 -49.105114 -119.947524 1.565092 2.494845 -0.906616 65.899127 48.37999 -50.571873 0.571675 1.648331 -0.321337 176.446302 -42.24659 -142.908131 73.162909 -72.143416 90.197696 71.721027 83.312065 -89.505105 82.6421 -51.015824 81.046421 -60.247983 84.116109 21.435558 -0.004668 -0.000551 -0.002334 -14.511908 -5.702592 -82.272161 -70.519951 16.553785 140.354873 -156.268361 -22.941886 97.002236 179.995227 75.749786 0.004924 -155.395702 7.283097 -91.20117 -73.9732 -16.479231 57.632325 79.651945 50.926878 -6.310917
-0.5259 58.1561 79.9001 -11.023315 -30.116354 15.285007 -0.447429 6.615588 -176.122174 -4.33193 5.498884 -164.807563 -11.361086 26.991157 -108.728559 35.927734 27.544597 111.718938 -0.000744 -0.0 1e-06 -0.000489 0.0 -0.00041 -155.504426 -3.514655 161.838066 35.826481 59.337791 -87.302446 -47.160791 -35.09533 -139.68894 122.1544 -63.982339 106.877662 -174.614691 -12.272221 89.847032 18.9333 -63.845659 16.623292 -159.055051 -31.319717 122.653104 -22.593191 45.776381 12.556889 -82.841168 61.109195 74.532172 -88.542011 63.893607 80.468264 0.007132 0.91774 0.28854 9.678593 7.24631 0.88513 -126.796236 -26.619098 -124.512509 -24.883611 -40.504565 -26.834271 -0.071097 -0.427771 0.095069 118.724682 -22.129006 -100.096697 152.880902 -7.910581 47.329837 -3.546791 -19.764835 0.510822 8.203601 7.848294 -1.80655 -12.806597 -14.363081 3.833162 108.426821 34.160442 -91.742881 159.888461 -2.95313 -115.647004 0.571668 1.648341 -0.321239 176.447119 -42.246584 -142.906675 -0.004799 1.771231 -0.557496 -11.270928 -44.46021 5.503695 145.258514 12.331528 141.896812 113.948473 -41.146679 112.259854 -6.6e-05 0.000587 8.5e-05 -20.298837 1.972908 84.682577 44.845634 9.396944 -143.07915 120.720205 12.832003 -30.78407 -0.000174 0.000587 -0.0 62.637799 -51.922135 157.125954 85.830333 0.345815 90.343016 169.4031 32.28661 141.627568
-2.451 57.045199999999994 73.2661 -16.328341 -33.049634 18.309615 6.533334 9.74507 0.0 4.623549 -8.908143 12.031699 9.720296 24.632747 127.774821 -24.593066 24.74233 -102.54762 0.003909 0.0 0.00406 -0.001543 0.0 -0.002114 0.133263 -0.807174 -0.178301 -105.040424 -11.609559 173.623829 73.810602 -31.298568 -140.362618 -106.02599 66.553181 83.551702 114.538942 -50.245599 55.721708 -135.939407 22.913294 91.230784 -46.207581 39.653775 36.317745 -102.517252 46.777637 77.14327 23.902584 -61.334054 1.398444 86.28292 -78.245458 57.726761 -13.617847 -53.680031 -25.681472 -151.647826 -0.589547 174.046079 -26.566611 -38.860467 -25.605649 -159.041726 55.077286 -149.517705 -0.07127 -0.427828 0.094414 -35.454048 26.294689 -43.319248 -12.900955 -4.553568 -112.797468 13.086165 4.250395 1.743736 178.927501 -16.453661 -89.422359 77.829927 9.251951 -24.339628 152.315945 -18.948259 -121.429025 79.126235 57.457637 -61.619372 158.521887 -0.192089 -142.145319 -167.300327 -63.979947 -132.40354 0.021332 -1.725204 0.542156 155.268424 -1.041759 -171.976536 -44.740267 86.377935 5.375392 10.094381 -23.469377 11.060788 0.0012 -0.000207 -0.001543 -11.017904 5.65851 -81.779744 -29.066788 7.220414 122.546117 -161.886461 -26.186451 79.241755 -0.000861 0.000643 -0.00043 75.772786 -53.200953 -101.476403 -67.686851 -69.818624 -169.979825 121.569074 -75.316649 5.080061
